<?xml version="1.0" encoding="UTF-8"?>
<svg width="60px" height="55px" viewBox="0 0 60 55" version="1.1" xmlns="http://www.w3.org/2000/svg" xmlns:xlink="http://www.w3.org/1999/xlink">
    <!-- Generator: Sketch 42 (36781) - http://www.bohemiancoding.com/sketch -->
    <title>calendar icon</title>
    <desc>Created with Sketch.</desc>
    <defs></defs>
    <g id="Symbols" stroke="none" stroke-width="1" fill="none" fill-rule="evenodd">
        <g id="calendar-icon" fill="#F09C0A">
            <path d="M52.2,3.8 L46.3,3.8 L46.3,2.5 C46.3,1.1 45.2,0 43.8,0 C42.4,0 41.3,1.1 41.3,2.5 L41.3,3.8 L17.9,3.8 L17.9,2.5 C17.9,1.1 16.8,0 15.4,0 C14,0 12.9,1.1 12.9,2.5 L12.9,3.8 L7,3.8 C3.2,3.8 0,6.9 0,10.8 L0,48 C0,51.8 3.1,55 7,55 L52.2,55 C56,55 59.2,51.9 59.2,48 L59.2,10.8 C59.2,7 56.1,3.8 52.2,3.8 Z M56.2,48 C56.2,50.2 54.4,52 52.2,52 L7,52 C4.8,52 3,50.2 3,48 L3,22.7 L56.2,22.7 L56.2,48 Z" id="Shape" fill-rule="nonzero"></path>
            <rect id="Rectangle" x="5" y="24" width="4.9740804" height="4.9740804" rx="2"></rect>
            <rect id="Rectangle-Copy-2" x="5" y="31" width="4.9740804" height="4.9740804" rx="2"></rect>
            <rect id="Rectangle-Copy-12" x="5" y="38" width="4.9740804" height="4.9740804" rx="2"></rect>
            <rect id="Rectangle-Copy-18" x="5" y="45" width="4.9740804" height="4.9740804" rx="2"></rect>
            <rect id="Rectangle-Copy-6" x="31" y="24" width="4.9740804" height="4.9740804" rx="2"></rect>
            <rect id="Rectangle-Copy-9" x="31" y="31" width="4.9740804" height="4.9740804" rx="2"></rect>
            <rect id="Rectangle-Copy-13" x="31" y="38" width="4.9740804" height="4.9740804" rx="2"></rect>
            <rect id="Rectangle-Copy-19" x="31" y="45" width="4.9740804" height="4.9740804" rx="2"></rect>
            <rect id="Rectangle-Copy" x="14" y="24" width="4.9740804" height="4.9740804" rx="2"></rect>
            <rect id="Rectangle-Copy-3" x="14" y="31" width="4.9740804" height="4.9740804" rx="2"></rect>
            <rect id="Rectangle-Copy-14" x="14" y="38" width="4.9740804" height="4.9740804" rx="2"></rect>
            <rect id="Rectangle-Copy-20" x="14" y="45" width="4.9740804" height="4.9740804" rx="2"></rect>
            <rect id="Rectangle-Copy-7" x="40" y="24" width="4.9740804" height="4.9740804" rx="2"></rect>
            <rect id="Rectangle-Copy-10" x="40" y="31" width="4.9740804" height="4.9740804" rx="2"></rect>
            <rect id="Rectangle-Copy-15" x="40" y="38" width="4.9740804" height="4.9740804" rx="2"></rect>
            <rect id="Rectangle-Copy-21" x="40" y="45" width="4.9740804" height="4.9740804" rx="2"></rect>
            <rect id="Rectangle-Copy-4" x="23" y="24" width="4.9740804" height="4.9740804" rx="2"></rect>
            <rect id="Rectangle-Copy-5" x="23" y="31" width="4.9740804" height="4.9740804" rx="2"></rect>
            <rect id="Rectangle-Copy-16" x="23" y="38" width="4.9740804" height="4.9740804" rx="2"></rect>
            <rect id="Rectangle-Copy-22" x="23" y="45" width="4.9740804" height="4.9740804" rx="2"></rect>
            <rect id="Rectangle-Copy-8" x="49" y="24" width="4.9740804" height="4.9740804" rx="2"></rect>
            <rect id="Rectangle-Copy-11" x="49" y="31" width="4.9740804" height="4.9740804" rx="2"></rect>
            <rect id="Rectangle-Copy-17" x="49" y="38" width="4.9740804" height="4.9740804" rx="2"></rect>
            <rect id="Rectangle-Copy-23" x="49" y="45" width="4.9740804" height="4.9740804" rx="2"></rect>
        </g>
    </g>
</svg>