<?xml version="1.0" encoding="UTF-8"?>
<svg width="60px" height="60px" viewBox="0 0 60 60" version="1.1" xmlns="http://www.w3.org/2000/svg" xmlns:xlink="http://www.w3.org/1999/xlink">
    <!-- Generator: Sketch 45 (43475) - http://www.bohemiancoding.com/sketch -->
    <title>noun_53247_cc</title>
    <desc>Created with Sketch.</desc>
    <defs></defs>
    <g id="Symbols" stroke="none" stroke-width="1" fill="none" fill-rule="evenodd">
        <g id="Request-Resource" transform="translate(-32.000000, -22.000000)" fill-rule="nonzero" fill="#F5A623">
            <g id="noun_53247_cc" transform="translate(32.000000, 22.000000)">
                <path d="M30,31.7784615 L16.7088608,23.9623077 L16.7088608,8.34538462 L30,0.529230769 L43.2911392,8.34538462 L43.2911392,23.9630769 L30,31.7784615 Z M19.7468354,22.1915385 L30,28.2215385 L40.2531646,22.1915385 L40.2531646,10.1161538 L30,4.08615385 L19.7468354,10.1161538 L19.7468354,22.1915385 Z" id="Shape"></path>
                <path d="M13.6708861,59.4576923 L0,51.6692308 L0,36.0230769 L13.6708861,28.2346154 L27.3417722,36.0230769 L27.3417722,51.6692308 L13.6708861,59.4576923 Z M3.03797468,49.8692308 L13.6708861,55.9269231 L24.3037975,49.8692308 L24.3037975,37.8230769 L13.6708861,31.7653846 L3.03797468,37.8230769 L3.03797468,49.8692308 Z" id="Shape"></path>
                <path d="M46.3291139,59.4576923 L32.6582278,51.6692308 L32.6582278,36.0230769 L46.3291139,28.2346154 L60,36.0230769 L60,51.6692308 L46.3291139,59.4576923 Z M35.6962025,49.8692308 L46.3291139,55.9269231 L56.9620253,49.8692308 L56.9620253,37.8230769 L46.3291139,31.7653846 L35.6962025,37.8230769 L35.6962025,49.8692308 Z" id="Shape"></path>
            </g>
        </g>
    </g>
</svg>