<?xml version="1.0" encoding="UTF-8"?>
<svg width="18px" height="19px" viewBox="0 0 18 19" version="1.1" xmlns="http://www.w3.org/2000/svg" xmlns:xlink="http://www.w3.org/1999/xlink">
    <!-- Generator: Sketch 42 (36781) - http://www.bohemiancoding.com/sketch -->
    <title>scheduled</title>
    <desc>Created with Sketch.</desc>
    <defs></defs>
    <g id="Symbols" stroke="none" stroke-width="1" fill="none" fill-rule="evenodd">
        <g id="Scheduled-Workshop" transform="translate(-636.000000, -75.000000)" fill="#66AA1C">
            <g id="scheduled" transform="translate(636.000000, 75.000000)">
                <g id="noun_927403_cc">
                    <g id="Group" transform="translate(0.000000, 0.179387)" fill-rule="nonzero">
                        <path d="M9,0.101863125 C4.039425,0.101863125 0,4.14131625 0,9.10186875 C0,14.0623875 4.039425,18.1018687 9,18.1018687 C13.960575,18.1018687 18,14.0623875 18,9.10186875 C18,4.14131625 13.960575,0.101863125 9,0.101863125 L9,0.101863125 Z M9,1.78936312 C13.0485656,1.78936312 16.3125,5.05331437 16.3125,9.10186875 C16.3125,13.1503781 13.0485656,16.4143688 9,16.4143688 C4.95143437,16.4143688 1.6875,13.1503781 1.6875,9.10186875 C1.6875,5.05331438 4.95143437,1.78936313 9,1.78936313 L9,1.78936312 Z M9,2.91436312 C8.534025,2.91436312 8.15625,3.29213812 8.15625,3.75811312 L8.15625,9.10186875 C8.15625,9.33485625 8.24965312,9.54683437 8.40234375,9.699525 L11.7861469,13.0833 C12.1156031,13.4127844 12.651975,13.4128406 12.9814594,13.0833 C13.3109719,12.7538156 13.3109719,12.2175 12.9814594,11.8879875 L9.84375,8.75030625 L9.84375,3.75811312 C9.84375,3.29213812 9.46600313,2.91436312 9,2.91436312 Z" id="Shape"></path>
                    </g>
                </g>
            </g>
        </g>
    </g>
</svg>